<?xml version="1.0" encoding="utf-8"?>
<!-- Generator: Adobe Illustrator 17.1.0, SVG Export Plug-In . SVG Version: 6.00 Build 0)  -->
<!DOCTYPE svg PUBLIC "-//W3C//DTD SVG 1.1//EN" "http://www.w3.org/Graphics/SVG/1.1/DTD/svg11.dtd">
<svg version="1.1" id="Layer_1" xmlns="http://www.w3.org/2000/svg" xmlns:xlink="http://www.w3.org/1999/xlink" x="0px" y="0px"
	 viewBox="0 0 1567 2200" enable-background="new 0 0 1567 2200" xml:space="preserve">
<g>
	<path fill="#85C441" d="M1189,0l-2.1,2.1l-1,1L1185,4l-2,2l-2,2l-4,4l-1,1l-1,1l-4,4l-1,1l-1,1l-4,4l-1,1l-1,1l-2,2l-2,2l-1,1l-1,1
		l-1,1l-4,4l-1,1l-4,4l-1,1l-1,1l-2,2l-1,1l-2,2l-2,2l-2,1.6l-1,0.8l-2,1.7l-2,1.9l-2,2l-2,2l-1,1l-2,2l-1,1l-4,4l-1,1l-1,1l-1,1
		l-4,4l-1,1l-2,2l-1,1l-2,2l-4,4l-1,1l-1,1l-4,4l-4,4l-1,1l-1,1l-2,2l-4,4l-1,1l-2,2l-1,1l-1,1l-2,2l-2,1.6l-1,0.8l-2,1.7l-2,1.9
		l-2,2l-2,2l-1,1l-2,2l-2,2l-1,1l-4,4l-1,1l-4,4l-1,1l-2,2l-2,2l-4,4l-1,1l-1,1l-4,4l-1,1l-1,1l-4,4l-1,1l-2,2l-4,4l-2,2l-1,1l-1,1
		l-2,2l-2,2l-2,2l-1.8,1.6l-1.5,1.4l-1.4,1.4l-0.7,0.8l-0.8,0.9l-0.9,0.6l-0.6,0.7l-0.8,0.7l-0.8,0.7l-1.8,1.5l-2,1.8l-2,2l-2,2
		l-4,4l-1,1l-2,2l-4,4l-1,1l-1,1l-4,4l-2,2l-2,2l-2,2l-3,3l-3,3l-1,1l-4,4l-1,1l-1,1l-1,1l-1,1l-2,2l-2,2l-2,2l-2,2l-2,2l-1,1l-2,2
		l-1,1l-2,1.6l-1,0.8l-2,1.7l-1,0.9l-2,2l-2,2l-1,1l-4,4l-4,4l-2,2l-1,1l-1,1l-1,1l-4,4l-1,1l-1,1l-2,2l-1,1l-2,2l-4,4l-1,1l-1,1
		l-4,4l-2,2l-1,1l-4,4l-1,1l-2,2l-2,2l-1,1l-1,1l-2,2l-2,1.6l-0.8,0.8l-1.5,1.6l-0.7,0.6l-1.4,1.4l-0.8,0.7l-0.9,0.7l-1.4,1.6
		l-0.8,0.6l-0.9,0.8l-1.9,1.7l-1,0.9l-2,2l-2,2l-1,1l-4,4l-4,4l-1,1l-2,2l-2,2l-1,1l-2,2l-2,2l-4,4l-1,1l-2,2l-4,4l-2,2l-3,3l-2,2
		l-4,4l-2,2l-2,2l-2,2l-1,1l-1,1l-1,1l-0.7,1l-0.5,0.5L813,372h5h2l1,0l1,0.1l2,0.3l2,0.4l1,0.2h2h1h1h2h1h2h4h2l2,0l1,0.1l2,0.3
		l1,0.2l2,0.4h1h2h1h2h1h2h6h1h2h2l2,0.1l2,0.3l1,0.2l2,0.4h1h2h2h8h2l2,0l1,0.1l2,0.3l1,0.2l2,0.4h1h2h2h7h1h2h1l2,0.1l1,0.1l2,0.4
		l2,0.4h1h2h1h2h10v2.1v1v0.9v1v4v2v4v1v2v8v4v1v4v2v1v2v4v8v5v1v1v1v1v2v2v1v3v4v3v1v1v4v1v1v8v1v2v1v2v1v2v1v2v1v2v3v1v2v1v2v4v1
		v2v4v1v8v3v5v1v1v16v4v4v1v2v4v2v1v2v1v16v1v4v4v1v8v1v16v1v4v1v4v1v2v1v2v2v2v1v2v1v5v1v1v3v4v1v1v1v1v2v2v2v2v1v2v4v2v4v1v8v3v2
		v1v3v1v4v8v2v1v2v3v2v1v1v1v2v2v1v4v1v1v2l0,1l-0.1,1l-0.3,2l-0.2,1l-0.4,2l-0.1,2l-0.1,1l-0.4,2l-0.4,2l-0.1,1l-0.4,2l-0.6,2
		l-0.6,2l-0.4,1l-0.1,1l-0.5,2l-0.4,2l-0.2,1l-0.3,1l-0.7,2l-0.4,1l-0.6,2l-0.3,1l-0.8,2l-0.4,1l-0.8,2l-0.4,1l-0.4,1l-0.5,1l-1,2
		l-0.4,1l-0.6,1l-0.4,1l-0.6,1l-0.4,1l-0.6,1l-0.5,1l-1.1,2l-0.6,1l-1.3,2l-0.7,1l-1.3,2l-1.3,2l-0.7,1l-1.4,2l-0.7,1l-1.6,2l-0.9,1
		l-0.8,1l-0.8,1l-0.8,1l-1.7,2l-1.9,2l-1,1l-2,2l-2,2l-1,1l-1,1l-2,1.6l-1,0.8l-1,0.8l-2,1.8l-2,1.6l-1,0.7l-2,1.4l-1,0.7l-2,1.6
		l-1,0.6l-1,0.7l-1,0.7l-2,1.3l-1,0.7l-1,0.6l-1,0.6l-2,1.2l-2,1.2l-1,0.6l-1,0.6l-1,0.5l-2,1l-1,0.6l-1,0.4l-1,0.6l-1,0.4l-1,0.6
		l-1,0.4l-1,0.6l-1,0.4l-2,1l-1,0.5l-1,0.4l-1,0.4l-2,0.8l-1,0.4l-2,0.8l-1,0.3l-2,0.6l-1,0.4l-2,0.8l-2,0.8l-1,0.4l-1,0.4l-1,0.4
		l-1,0.3l-1,0.3l-1,0.2l-1,0.3l-1,0.4l-2,0.4l-1,0.3l-2,0.6l-0.5,0.2L827,851l0.8,0.7l0.5,0l0.7,0.3h1h2h2h5h2h1h2h4h1h2h3h8h5h1h8
		h8h4h2h3h1h1h2h2h1h16h2h1h4h4h1h1h8h4h1h8h2h16h1h8h5h4h1h8h5h8h1h2h1h2h2h1h8h5h8h4h1h1h2h2h1h2h2h1h4h8h2h1h4h5h1h1h8h1h2h3h1h1
		h1h4h4h1h1h1h2h3h1h2h1h16h4h1h1h2h2h2h16h2h1h2h1h2h3h1h1h4h2h5h1h2h16h2h2h8h4h1h8h2h2h1h5h2h1h4h1h1h1h2h2h1h2h2h1h2h2h1l2-0.4
		l1-0.2l2-0.3l1-0.1l2,0h2h1h8h1h2h2h1l2-0.4l1-0.2l2-0.3l1-0.1l2,0h1h2h2l2-0.4l1-0.2l2-0.3l1-0.1l2,0h1l2-0.4l1-0.2l2-0.3l1-0.1
		l2-0.4l2-0.4l1-0.1l2-0.1h1l2-0.4l1-0.3l1-0.2l1-0.1l2-0.6l1-0.2l1-0.2l2-0.4l2-0.6l2-0.6l2-0.4l2-0.5l1-0.4l2-0.7l1-0.3l2-0.6
		l2-0.6l1-0.3l2-0.7l2-0.7l2-0.7l1-0.4l2-0.8l2-0.7l1-0.3l1-0.3l1-0.4l2-0.9l1-0.5l1-0.4l1-0.6l1-0.4l1-0.6l1-0.4l1-0.6l1-0.4l1-0.6
		l1-0.5l2-1.1l1-0.6l1-0.7l1-0.7l2-1.3l2-1.3l1-0.7l1-0.7l2-1.5l1-0.8l1-0.8l2-1.6l2-1.9l2-1.7l1-0.8l1.9-1.6l1.7-2l0.8-1l1.6-2
		l1.9-2l1.7-2l0.8-1l1.5-2l0.8-1l0.7-1l0.7-1l1.3-2l0.6-1l0.6-1l0.6-1l1.2-2l1.2-2l1.1-2l0.5-1l0.6-1l0.4-1l0.5-1l0.4-1l0.4-1l0.8-2
		l0.9-2l0.5-1l0.9-2l0.7-2l0.7-2l0.3-1l0.3-1l0.3-1l0.1-1l0.7-2l0.7-2l0.4-1l0.4-1l0.4-1l0.4-2l0.4-1l0.5-2l0.1-1l0.4-1l0.3-1l0.2-1
		l0.5-2l0.3-1l0.3-2l0.1-2l0.4-2l0.2-1l0.3-2l0.1-1l0.4-2l0.4-2l0.1-1l0.1-2l0.2-1l0.4-2l0.3-2l0.1-1l0-1v-2v-2v-1l0.4-2l0.2-1
		l0.3-2l0.1-1l0-2v-1v-1v-4v-1v-1v-4v-4v-1v-8v-1v-4v-1v-2v-3v-8v-4v-1v-4v-1v-1v-1v-4v-1v-2v-3v-5v-4v-1v-1v-1v-4v-4v-1v-4v-4v-2
		v-3v-1v-4v-1v-1v-4v-1v-1v-8v-1v-1v-2v-2v-2v-4v-1v-1v-3v-1v-4v-5v-1v-1v-2v-2v-2v-4v-1v-2v-3v-5v-1v-4v-1v-3v-3v-1v-4v-1v-1v-2v-8
		v-4v-1v-1v-1v-1v-3v-1v-4v-1v-4v-1v-2v-1v-4v-4v-1v-2v-5v-2v-3v-1v-4v-2v-3v-2v-4v-1v-1v-4v-2v-3v-1v-4v-3v-2v-1v-4v-8v-1v-4v-1v-4
		v-1v-1v-1v-8v-2v-1v-1v-4v-1v-1v-1v-5v-4h2h6h4h2h1h2h1h2h3h4h3h1h4h1h4h1h4h1h8h1h1h3h2h1h1h4h1h1h4h1h1h1h2h1h2h4h1h8h4h1h4h1h4
		h2h1h4h2h2h1h2h1.9h1h2.1l-0.4-1.3l-0.4-0.4l-0.6-0.8l-1.7-1.6l-2-2l-2-2l-2-2l-1-1l-2-2l-2-2l-2-2l-2-2l-1-1l-2-2l-1-1l-2-2l-1-1
		l-2-2l-1-1l-2-2l-2-2l-2-2l-1-0.9l-2-1.7l-1-0.8l-2-1.6l-1-1l-1-1l-2-2l-1-1l-2-2l-4-4l-2-2l-2-2l-1-1l-2-2l-1-1l-2-2l-1-1l-2-2
		l-2-2l-1-1l-2-2l-1-1l-1-1l-2-2l-2-2l-1-1l-2-2l-1-1l-1-1l-2-2l-1-1l-2-1.9l-2-1.7l-1-0.8l-2-1.6l-1-1l-2-2l-2-2l-1-1l-1-1l-2-2
		l-2-2l-1-1l-2-2l-2-2l-2-2l-1-1l-2-2l-4-4l-2-2l-4-4l-1-1l-2-2l-4-4l-1-1l-2-2l-1-1l-4-4l-2-2l-1-1l-2-2l-1-0.9l-2-1.7l-2-1.6
		l-1-0.8l-2-2l-1-1l-2-2l-2-2l-4-4l-1-1l-2-2l-4-4l-1-1l-1-1l-4-4l-1-1l-1-1l-2-2l-4-4l-1-1l-1-1l-2-2l-2-2l-1-1l-2-2l-2-2l-2-2
		l-1-0.9l-2-1.7l-2-1.6l-1-0.8l-2-2l-1-1l-2-2l-2-2l-1-1l-4-4l-2-2l-2-2l-2-2l-1-1l-2-2l-4-4l-1-1l-2-2l-2-2l-2-2l-4-4l-1-1l-1-1
		l-2-2l-2-2l-2-2l-2-2l-1-1l-2-2l-1-1l-1-1l-2-1.9l-1-0.9l-2-1.6l-2-1.6l-1-1l-2-2l-1-1l-1-1l-4-4l-4-4l-1-1l-1-1l-2-2l-2-2l-2-2
		l-4-4l-1-1l-2-2l-1-1l-2-2l-2-2l-4-4l-1-1l-4-4l-1-1l-2-2l-1-0.9l-2-1.7l-2-1.6l-1-0.8l-2-2l-1-1l-2-2l-1-1l-2-2l-1-1l-4-4l-2-2
		l-2-2l-4-4l-2-2l-1-1l-1-1l-4-4l-2-2l-4-4l-4-4l-2-2l-2-2l-1-1l-2-2l-2-2l-1-1l-2-2l-1-0.9l-2-1.7l-1-0.8l-2-1.6l-1-1l-2-2l-1-1
		l-2-2l-1-1l-1-1l-2-2l-1-0.9l-1-0.8l-0.5-0.5L1189,0z"/>
	<path fill="#85C441" d="M1433,869v1.5l0,0.6l-0.2,1.9l-0.2,1l-0.6,2l-0.3,1l-0.3,1l-0.4,1l-0.4,2l-0.6,2l-0.6,2l-0.6,2l-0.3,1
		l-0.4,1l-0.8,2l-0.8,2l-0.4,1l-0.4,1l-0.5,1l-1,2l-0.4,1l-0.6,1l-0.4,1l-0.6,1l-0.5,1l-1.1,2l-0.6,1l-1.3,2l-1.4,2l-0.7,1l-0.8,1
		l-0.9,1l-1.4,2l-1.6,2l-1.6,2l-0.8,1l-1.7,2l-0.9,1l-2,2l-2,2l-2,2l-1,1l-1,1l-2,1.6l-1,0.8l-2,1.6l-2,1.6l-2,1.5l-1,0.9l-1,0.6
		l-1,0.7l-1,0.7l-1,0.7l-2,1.3l-2,1.3l-1,0.7l-1,0.6l-2,1.1l-1,0.5l-2,1.1l-1,0.6l-1,0.5l-2,1.1l-1,0.5l-2,1.1l-1,0.5l-2,0.8l-1,0.4
		l-1,0.4l-1,0.5l-1,0.4l-1,0.5l-2,0.9l-1,0.4l-1,0.3l-1,0.3l-2,0.7l-1,0.3l-2,0.7l-2,0.8l-1,0.4l-1,0.3l-2,0.6l-2,0.6l-1,0.3l-2,0.7
		l-2,0.6l-1,0.4l-2,0.4l-2,0.7l-1,0.4l-2,0.6l-1,0.2l-1,0.3l-1,0.4l-1,0.1l-2,0.5l-1,0.2l-2,0.4l-2,0.4l-2,0.4l-2,0.2l-2,0.4l-2,0.4
		l-1,0.1l-2,0.3l-1,0.2l-2,0.4l-1,0.1l-2,0.3l-1,0.2l-1,0.2l-2,0.4l-1,0.2l-1,0.2l-2,0.4h-1h-2l-2,0.1l-1,0.1l-1,0.2l-2,0.4l-1,0.2
		h-2h-1h-2l-2,0l-1,0.1l-2,0.3l-1,0.2l-2,0.4h-1h-2h-1h-2h-8h-2h-1h-4h-4h-1h-8h-1h-16h-8h-1h-4h-4h-1h-2h-3h-2h-3h-3h-1h-4h-2h-1
		h-1h-4h-2h-1h-4h-2h-4h-2h-3h-4h-1h-4h-8h-1h-4h-1h-2h-16h-2h-1h-1h-4h-2h-1h-2h-1h-2h-8h-1h-2h-4h-3h-2h-8h-1h-1h-8h-1h-2h-2h-1
		h-8h-1h-2h-2h-3h-8h-1h-1h-4h-3h-2h-1h-2h-2h-1h-16h-4h-6h-1h-8h-8h-4h-2h-5h-4h-4h-2h-4h-3h-2h-1h-8h-4h-2h-3h-4h-6h-2h-3h-1h-3
		h-5h-1h-4h-6h-4h-4h-2h-2h-2h-1h-2h-16h-4h-4h-1h-10h-4h-2h-4h-2h-4h-3h-16h-8h-16h-1h-2h-8h-1h-1h-10h-1h-5h-6h-3h-6h-1h-5h-3h-4
		h-1h-9h-3h-4h-1h-5h-6h-4h-4h-7h-8h-1h-8h-16h-4h-4h-4h-10h-6h-1h-19h-20h-7h-5h-7h-4h-10h-19h-16h-9h-10h-9h-5h-7h-9h-5h-3h-28
		h-25H269h-19h-6h-2l-2,0l-1,0.1l-2,0.3l-1,0.2l-2,0.4h-1h-2h-2h-8h-1l-2,0l-1,0.1l-2,0.3l-1,0.2l-2,0.4h-1h-2h-2h-1l-2,0l-1,0.1
		l-2,0.3l-1,0.2l-1,0.2l-2,0.4l-1,0.2l-1,0.2l-2,0.4l-2,0l-1,0.1l-1,0.1l-2,0.4l-1,0.2l-2,0.4l-1,0.2l-1,0.2l-2,0.4l-2,0.1l-2,0.3
		l-1,0.3l-2,0.5l-2,0.5l-1,0.4l-2,0.4l-1,0.3l-2,0.4l-1,0.1l-2,0.3l-1,0.3l-2,0.5l-1,0.2l-1,0.3l-1,0.4l-2,0.4l-1,0.3l-2,0.6l-1,0.3
		l-2,0.5l-1,0.3l-1,0.3l-1,0.3l-2,0.7l-2,0.7l-1,0.4l-1,0.4l-1,0.4l-2,0.6l-1,0.3c-1,0.3-2,0.6-3,1l-1,0.4l-2,0.8l-2,0.8l-2,0.9
		l-1,0.5l-2,0.9l-2,0.8l-2,0.9l-1,0.5l-2,1l-1,0.4l-1,0.4l-2,0.8l-1,0.4l-1,0.4l-1,0.5l-1,0.5l-2,1.1l-2,1.2l-1,0.6l-1,0.6l-2,1
		l-1,0.4l-1,0.6l-1,0.5l-2,1.1l-2,1.2l-2,1.2l-1,0.6l-2,1.3l-1,0.7l-2,1.3l-2,1.3l-1,0.7l-1,0.7l-2,1.6l-1,0.6l-1,0.7l-1,0.8l-1,0.9
		l-2,1.4l-1,0.8l-1,0.9l-2,1.4l-1,0.8l-1,0.9l-2,1.9l-1,1l-2,1.6l-1,0.8l-2,1.7l-1,0.9l-2,2l-1,1l-2,2l-1,1l-1.6,2l-0.8,1l-1.7,2
		l-0.9,1l-1.8,2l-0.8,1l-1.6,2l-1.6,2l-0.8,1l-1.5,2l-0.9,1l-0.6,1l-0.7,1l-0.7,1l-1.3,2l-1.3,2l-0.7,1l-1.3,2l-0.6,1l-1.2,2l-1.2,2
		l-0.6,1l-0.6,1l-0.5,1l-1,2l-0.6,1l-0.4,1l-0.6,1l-0.4,1l-0.6,1l-0.4,1l-0.6,1l-0.4,1l-1,2l-0.5,1l-0.4,1l-0.4,1l-0.8,2l-0.4,1
		l-0.8,2l-0.8,2l-0.4,1l-0.8,2l-0.8,2l-0.8,2l-0.4,1l-0.6,2l-0.2,1l-0.3,1l-0.4,1l-0.4,2l-0.4,1l-0.7,2l-0.5,2l-0.1,1l-0.3,2l-0.3,1
		l-0.4,1l-0.1,1l-0.5,2l-0.2,1l-0.4,2l-0.4,2l-0.4,2l-0.4,2l-0.4,2l-0.2,2l0,2l-0.1,1l-0.3,2l-0.2,1l-0.4,2v1l0,2l-0.1,1l-0.3,2
		l-0.2,1l-0.4,2v1v2v2v6v1v2v8v4v1v2v2v1v1v2v2v3v4v1v3v2v2v2v16v4v5v4v6v2v5v2v8v1v2v6v1v5v3v6v8v1v3v2v3v1v4v14v8v4v2v3v2v1v1v8v4
		v1v4v10v5v2v5v4v4v4v1v1v3v28v2v3v4v4v10v8v5v3v4v6v1v8v1v4v6v16v59l1-0.8l0.2-0.5l0.5-0.7l0.7-2l0.3-1l0.3-1l0.6-2l0.8-2l0.5-1
		l1-2l0.9-2l0.4-1l0.9-2l1.1-2l0.6-1l1.1-2l0.5-1l1.1-2l0.6-1l0.7-1l1.3-2l1.3-2l0.7-1l1.4-2l0.8-1l1.6-2l0.8-1l0.8-1l1.6-2l1-1l2-2
		l1-1l2-2l2-2l1-1l2-2l1-0.9l2-1.7l1-0.8l1-0.8l2-1.6l1-0.8l2-1.4l1-0.9l1-0.8l1-0.7l1-0.7l2-1.3l2-1.3l1-0.7l2-1.3l1-0.6l2-1.2
		l2-1.2l1-0.6l1-0.6l1-0.5l2-1l1-0.6l1-0.4l1-0.6l1-0.4l2-1l1-0.5l1-0.4l1-0.4l2-0.8l1-0.4l2-0.8l2-0.8l1-0.4l2-0.8l2-0.8l2-0.8
		l1-0.4l1-0.4l1-0.4l2-0.7l2-0.7l1-0.3l2-0.6l1-0.3l1-0.1l1-0.4l1-0.3l1-0.2l2-0.4l1-0.3l2-0.7l1-0.4l2-0.4l1-0.1l2-0.4l2-0.5l1-0.1
		l2-0.6l1-0.2l2-0.4l1-0.2l1-0.2l2-0.3l2-0.3l2-0.4l2-0.3l2-0.1l1-0.2l2-0.4l2-0.3l1-0.1l2,0h1l2-0.4l1-0.2l2-0.3l1-0.1l2,0h2h1h2h1
		l2-0.4l1-0.2l2-0.3l1-0.1l2,0h3h10h1h5h24h4h5h6h1h9h3h1h4h9h1h9h1h105h42h36h17h28h4h22h8h15h3h1h2h23h1h2h8h5h10h12h20h20h4h16h4
		h16h1h8h5h2h8h5h4h2h16h13h4h1h1h5h2h4h3h5h1h4h2h1h2h4h6h2h1h2h1h2h1h8h4h3h2h1h5h5h4h1h5h1h4h4h3h2h1h1h3h6h4h4h2h8h4h1h8h2h1h10
		h5h8h5h8h6h16h2h1h2h4h2h1h2h4h3h2h4h16h4h2h8h5h2h4h1h4h5h1h1h2h4h8h8h2h4h1h4h8h1h32h1h2h2h4h1h1h1h4h8h1h1h1h2h5h1h1h1h2h2h1h4
		h1h1h1h4h1h1h1h1h1h1h2h1h4h2h1h4h5h1h4h2h2h2h1l2-0.4l1-0.2l2-0.3l1-0.1l2,0h2h4h2h2h1h2l1-0.2l2-0.4l2-0.3l1-0.1l2,0h2h1l2-0.4
		l1-0.2l2-0.3l2-0.3l1-0.2l2-0.4l1-0.1l2-0.1l1-0.2l2-0.4l2-0.3l2-0.1l2-0.4l1-0.2l1-0.2l2-0.4l1-0.2l1-0.2l1-0.2l2-0.4l1-0.2l1-0.3
		l2-0.6l1-0.3l2-0.4l1-0.1l2-0.5l2-0.7l1-0.4l2-0.4l1-0.4l1-0.3l2-0.6l1-0.3l2-0.4l1-0.4l1-0.3l1-0.2l2-0.6l1-0.4l1-0.4l2-0.8l2-0.6
		l2-0.6l1-0.3l1-0.4l1-0.4l1-0.4l2-0.8l1-0.4l2-0.8l2-0.8l1-0.4l1-0.4l1-0.5l2-1l1-0.4l1-0.4l2-0.8l1-0.4l1-0.4l2-1l1-0.6l1-0.4l2-1
		l1-0.6l1-0.6l2-1.2l2-1.1l1-0.5l2-1.1l2-1.2l2-1.2l1-0.6l1-0.6l2-1.3l1-0.7l2-1.3l1-0.7l2-1.3l1-0.7l1-0.7l1-0.7l1-0.6l1-0.9l2-1.5
		l1-0.8l2-1.6l2-1.6l2-1.6l1-0.9l2-1.7l1-0.8l2-1.6l1-1l2-2l2-2l2-2l1-1l2-2l0.9-1l1.7-2l1.6-2l0.8-1l1.9-2l1.7-2l0.8-1l1.5-2l0.8-1
		l0.7-1l1.5-2l0.8-1l0.7-1l0.7-1l0.7-1l1.3-2l1.3-2l0.7-1l0.7-1l1.3-2l0.6-1l1.1-2l0.5-1l1.1-2l1.2-2l0.6-1l0.6-1l1-2l0.4-1l0.6-1
		l0.4-1l0.6-1l1-2l0.9-2l0.8-2l0.9-2l0.5-1l0.9-2l0.4-1l0.4-1l0.7-2l0.8-2l0.4-1l0.4-1l0.3-1l0.6-2l0.7-2l0.4-1l0.4-2l0.4-1l0.3-1
		l0.6-2l0.3-1l0.4-2l0.4-1l0.3-1l0.2-1l0.1-1l0.6-2l0.2-1l0.4-2l0.2-1l0.2-1l0.2-1l0.4-2l0.2-1l0.2-1l0.3-2l0.1-1l0-2l0.2-1l0.4-2
		l0.2-1l0.1-1l0.1-2l0.2-1l0.4-2l0.3-2l0.1-1l0-2v-1v-3v-4v-8v-1v-2v-1v-4v-2v-8v-1v-3v-8v-8v-2v-1v-2v-3v-16v-1v-4v-2v-16v-3v-4v-2
		v-4v-1v-4v-1v-2v-2v-2v-1v-1v-1v-4v-1v-4v-8v-1v-1v-8v-1v-1v-1v-1v-1v-4v-1v-2v-2v-1v-1v-1v-1v-4v-1v-2v-1v-4v-8v-1v-2v-3v-1v-4v-1
		v-1v-2v-1v-1v-2v-4v-2v-4v-1v-4v-8v-2v-1v-4v-2v-2v-1v-4v-1v-1v-1v-4v-2v-1v-3v-1v-1v-8v-8v-1v-1v-1v-4v-3v-4v-2v-1v-2v-1v-1v-1v-1
		v-1v-8v-32v-8v-1v-2v-4v-16v-1v-4v-2v-1v-2v-1v-4v-1v-1v-1v-8v-4v-1v-8v-2v-1l0-1l0-0.9l-0.2-0.8l0-0.5L1433,869z"/>
	<path fill="#85C441" d="M0,2200h502v-297v-92v-28v-10v-3v-2v-1l0.4-2l0.2-1l0.3-2l0.1-1l0-1v-2v-1l0.4-2l0.2-1l0.3-2l0.1-2l0.2-1
		l0.4-2l0.3-2l0.1-1l0.2-2l0.2-1l0.3-1l0.6-2l0.5-2l0.4-2l0.4-2l0.3-2l0.1-1l0.4-2l0.3-1l0.2-1l0.5-2l0.3-1l0.6-2l0.3-1l0.3-1l0.6-2
		l0.4-1l0.7-2l0.3-1l0.2-1l0.4-1l0.6-2l0.8-2l0.8-2l0.8-2l0.4-1l0.8-2l0.8-2l0.4-1l0.4-1l0.5-1l1-2l0.4-1l0.6-1l0.4-1l0.6-1l0.4-1
		l0.6-1l0.4-1l0.6-1l1-2l0.5-1l0.6-1l0.6-1l1.2-2l1.2-2l0.6-1l1.2-2l1.2-2l1.2-2l1.4-2l0.6-1l0.9-1l0.8-1l0.7-1l0.6-1l0.9-1l1.5-2
		l1.6-2l0.9-1l1.7-2l0.8-1l1.6-2l1-1l2-2l1-1l2-2l2-2l2-2l1-0.9l2-1.7l1-0.8l2-1.6l1-0.9l2-1.7l2-1.4l1-0.9l1-0.8l1-0.7l1-0.6l1-0.9
		l2-1.4l2-1.3l1-0.6l2-1.2l2-1.2l1-0.6l2-1.2l2-1.2l1-0.6l1-0.6l2-1l1-0.4l1-0.6l2-1l1-0.4l1-0.4l2-0.8l2-0.9l1-0.5l2-0.9l2-0.8
		l2-0.8l1-0.4l1-0.3l1.9-0.6l2.1-0.6l-0.8-0.7l-0.5,0l-0.8-0.2l-0.9,0l-1,0h-1h-2h-10h-17h-2h-22h-7h-2l-2,0l-1,0.1l-2,0.3l-2,0.4
		l-1,0.2h-2h-2h-2h-1h-10h-10h-20h-1h-5h-2h-2h-80h-91h-31h-10h-3h-2l-2,0.1l-2,0.3l-1,0.2l-2,0.4h-1h-1h-2h-2h-3h-10h-29h-14h-3h-2
		l-2,0l-1,0.1l-2,0.3l-2,0.4l-1,0.2l-2,0l-1,0.1l-2,0.3l-1,0.2l-2,0.4h-1l-2,0l-1,0.1l-2,0.3l-2,0.4l-2,0.3l-2,0.3l-1,0.2l-1,0.2
		l-2,0.4l-1,0.2l-2,0.6l-2,0.4l-1,0.3l-2,0.4l-2,0.1l-2,0.3l-1,0.3l-1,0.4l-2,0.4l-2,0.7l-1,0.4l-1,0.3l-2,0.4l-2,0.5l-2,0.7l-1,0.4
		l-1,0.4l-1,0.4l-2,0.6l-1,0.3l-2,0.8l-1,0.4l-2,0.7l-1,0.3l-2,0.7l-1,0.4l-2,0.8l-2,0.8l-2,0.9l-1,0.5l-1,0.4l-1,0.6l-2,1l-1,0.4
		l-1,0.4l-1,0.4l-2,1l-2,1l-1,0.6l-1,0.6l-1,0.6l-2,1l-1,0.5l-1,0.6l-1,0.6l-2,1.2l-2,1.2l-1,0.6l-1,0.6l-1,0.6l-2,1.3l-2,1.3
		l-1,0.7l-2,1.4l-1,0.8l-2,1.5l-1,0.7l-1,0.8l-2,1.5l-1,0.8l-2,1.7l-1,0.9l-2,1.6l-1,0.8l-2,1.7l-2,1.9l-1,1l-2,2l-2,2l-1,1l-2,2
		l-1,1l-1.6,2l-0.8,1l-1.7,2l-1.9,2l-1.6,2l-1.5,2l-0.9,1l-0.6,1l-0.7,1l-1.6,2l-0.6,1l-0.7,1l-0.7,1l-0.7,1l-1.3,2l-1.3,2l-0.7,1
		l-0.6,1l-0.6,1l-1.2,2l-1.2,2l-0.6,1l-0.6,1l-1,2l-0.4,1l-0.6,1l-0.4,1l-0.6,1l-1,2l-0.4,1l-0.6,1l-0.4,1l-0.6,1l-0.4,1l-0.6,1
		l-1,2l-0.4,1l-0.9,2l-0.5,1l-0.5,1l-1,2l-0.7,2l-0.4,1l-0.4,1l-0.8,2l-0.4,1c-0.4,1-0.7,2-1,3l-0.4,1l-0.4,2l-0.8,2l-0.4,1l-0.7,2
		l-0.7,2l-0.3,1l-0.3,1l-0.5,2l-0.2,1l-0.3,1l-0.4,2l-0.1,1l-0.4,2l-0.7,2l-0.4,1l-0.5,2l-0.1,1l-0.3,2l-0.2,1l-0.2,1l-0.4,2l-0.2,1
		l-0.2,1l-0.4,2l-0.1,1l-0.3,2l-0.2,1l-0.4,2l-0.1,1l-0.3,2l-0.2,1l-0.4,2v1l-0.1,2l-0.3,2l-0.2,1l-0.4,2v1v2v1v2l0,2l-0.1,1l-0.3,2
		l-0.2,1l-0.4,2v1v2v1v3v11v35V2200z"/>
</g>
</svg>
